<svg width="180" height="28" viewBox="0 0 180 28" fill="none" xmlns="http://www.w3.org/2000/svg">
  <rect x="1.5" y="1.5" width="25" height="25" rx="6" stroke="white" stroke-width="3"/>
  <rect x="12" y="6" width="4" height="16" fill="white"/>
  <rect x="6" y="12" width="16" height="4" fill="white"/>
  <path d="M39.248 22V5.68H45.008L48.608 15.472L52.184 5.68H57.944V22H54.08V10.072L49.904 22H47.288L43.112 10.072V22H39.248ZM61.8574 22V5.68H73.0894V8.944H65.8174V12.208H72.7534V15.472H65.8174V22H61.8574ZM76.0292 22V5.68H80.0132V22H76.0292ZM84.2261 22V5.68H90.0101C95.1701 5.68 97.9301 8.704 97.9301 13.84C97.9301 18.976 95.1701 22 90.0101 22H84.2261ZM88.2101 18.616H89.8421C92.8421 18.616 93.8501 16.84 93.8501 13.84C93.8501 10.84 92.8421 9.064 89.8421 9.064H88.2101V18.616ZM101.307 22V5.68H112.539V8.944H105.267V12.208H112.203V15.472H105.267V18.736H112.539V22H101.307ZM116.202 22V5.68H122.01L125.682 15.472L129.354 5.68H135.162V22H131.298V10.072L127.122 22H124.506L120.33 10.072V22H116.202ZM139.052 22V5.68H150.284V8.944H143.012V12.208H149.948V15.472H143.012V18.736H150.284V22H139.052Z" fill="white"/>
</svg>
