<?xml version="1.0" encoding="UTF-8"?>
<!DOCTYPE svg PUBLIC "-//W3C//DTD SVG 1.1//EN" "http://www.w3.org/Graphics/SVG/1.1/DTD/svg11.dtd">
<!-- Creator: CorelDRAW (Evaluation Version) -->
<svg xmlns="http://www.w3.org/2000/svg" xml:space="preserve" width="297mm" height="210mm" version="1.1" style="shape-rendering:geometricPrecision; text-rendering:geometricPrecision; image-rendering:optimizeQuality; fill-rule:evenodd; clip-rule:evenodd"
viewBox="0 0 29700 21000"
 xmlns:xlink="http://www.w3.org/1999/xlink"
 xmlns:xodm="http://www.corel.com/coreldraw/odm/2003">
 <defs>
  <style type="text/css">
   <![CDATA[
    .fil0 {fill:#13AE9C}
    .fil1 {fill:#13AE9C;fill-rule:nonzero}
   ]]>
  </style>
 </defs>
 <g id="Layer_x0020_1">
  <metadata id="CorelCorpID_0Corel-Layer"/>
  <g id="_105553194264128">
   <path class="fil0" d="M9054.82 8453.58l-356.85 -364.1c158.78,77.51 283.95,207.45 356.85,364.1zm49.27 140.26l-544.94 -556.02c48.58,12.86 94.98,30.27 138.82,51.66l356.85 364.1c20.83,44.78 37.41,91.72 49.27,140.26zm18.27 108.62l-671.47 -685.11c11.52,1.33 23.07,2.9 34.63,4.77 25.05,4.07 49.6,9.35 73.63,15.7l544.94 556.02c8.66,35.44 14.8,71.73 18.27,108.62zm3 93.04l-767.66 -783.26c30.8,-0.19 61.9,1.49 93.19,5.11l671.47 685.11c2.89,30.64 3.91,61.7 3,93.04zm-6.89 82.94l-843.99 -861.14c27.41,-3.21 55.19,-4.89 83.22,-5.06l767.66 783.26c-0.79,27.46 -3.05,55.14 -6.89,82.94zm-14.29 75.4l-905.36 -923.75c24.86,-5.5 50.1,-9.8 75.66,-12.79l843.99 861.14c-0.84,6.02 -1.72,12.05 -2.7,18.07 -3.16,19.42 -7.05,38.52 -11.59,57.33zm608.77 711.13l-183.49 -187.22c10.6,-7.44 21.15,-15.16 31.66,-23.19 47.31,63.08 99.89,135.54 151.83,210.41zm-629 -641.79l-954.77 -974.17c22.82,-7.39 46.06,-13.7 69.64,-18.92l905.36 923.75c-5.71,23.62 -12.46,46.75 -20.23,69.34zm802.12 908.42l-410.43 -418.78c18.05,-10.9 36,-22.56 53.82,-35.07l183.49 187.22c62.01,89.39 123.08,182.21 173.12,266.63zm-827.47 -844.3l-993.9 -1014.1c21.07,-9 42.58,-17.1 64.48,-24.19l954.77 974.17c-7.53,21.89 -15.99,43.28 -25.35,64.12zm838.21 945.23l-478.31 -488.03c19.17,-9.72 38.22,-20.27 57.14,-31.68l410.43 418.78c13.06,22.02 25.37,43.48 36.74,64.16 -8.62,12.47 -17.29,24.71 -26,36.77zm-868.13 -885.78l-1023.95 -1044.76c19.54,-10.44 39.54,-20.06 59.97,-28.79l993.9 1014.1c-9.15,20.34 -19.12,40.18 -29.92,59.45zm829.94 936.79l-500.95 -511.13c20.42,-8.42 40.69,-17.72 60.83,-27.91l478.31 488.03c-12.64,17.43 -25.38,34.39 -38.19,51.01zm-864.03 -881.6l-1045.77 -1067.01c18.14,-11.77 36.81,-22.74 55.91,-32.94l1023.95 1044.76c-10.61,18.95 -21.99,37.36 -34.09,55.19zm824.5 931.24l-526.33 -537.02c21.79,-6.99 43.42,-14.9 64.91,-23.75l500.95 511.13c-13.1,16.95 -26.26,33.54 -39.53,49.64zm-862.5 -880.03l-1059.75 -1081.28c16.82,-13.02 34.14,-25.37 51.98,-36.94l1045.77 1067.01c-11.97,17.65 -24.66,34.73 -38,51.21zm821.49 928.17l-554.77 -566.04c23.32,-5.4 46.47,-11.76 69.45,-19.12l526.33 537.02c-13.58,16.48 -27.26,32.54 -41.01,48.14zm-863.21 -880.76l-1066.36 -1088.03c15.55,-14.23 31.69,-27.78 48.33,-40.66l1059.75 1081.28c-13.27,16.41 -27.19,32.22 -41.72,47.41zm820.66 927.33l-586.66 -598.59c25,-3.67 49.83,-8.31 74.44,-14.02l554.77 566.04c-14.11,15.98 -28.28,31.49 -42.55,46.57zm-866.03 -883.64l-1065.64 -1087.3c14.29,-15.42 29.18,-30.25 44.65,-44.42l1066.36 1088.03c-14.54,15.2 -29.67,29.77 -45.37,43.69zm821.92 928.6l-622.44 -635.08c26.85,-1.78 53.47,-4.59 79.89,-8.47l586.66 598.59c-14.62,15.44 -29.33,30.45 -44.11,44.96zm-870.94 -888.63l-1057.65 -1079.15c13.03,-16.64 26.72,-32.68 41.03,-48.12l1065.64 1087.3c-15.79,14 -32.15,27.32 -49.02,39.97zm825.19 931.94l-662.58 -676.05c28.87,0.28 57.5,-0.47 85.89,-2.34l622.44 635.08c-15.18,14.91 -30.42,29.36 -45.75,43.31zm-877.93 -895.77l-1042.17 -1063.36c11.72,-17.88 24.15,-35.22 37.26,-51.96l1057.65 1079.15c-17.06,12.78 -34.66,24.85 -52.74,36.17zm830.44 937.29l-707.36 -721.72c31.03,2.45 61.78,3.87 92.27,4.15l662.58 676.05c-15.76,14.34 -31.6,28.16 -47.49,41.52zm-887.06 -905.09l-1018.86 -1039.57c10.34,-19.2 21.45,-37.88 33.31,-55.99l1042.17 1063.36c-18.4,11.52 -37.28,22.27 -56.62,32.2zm837.87 944.88l-757.11 -772.49c33.28,4.7 66.26,8.4 98.94,10.98l707.36 721.72c-16.34,13.74 -32.74,27.06 -49.19,39.79zm-898.68 -916.94l-987.15 -1007.21c8.85,-20.63 18.56,-40.74 29.1,-60.3l1018.86 1039.57c-19.82,10.18 -40.11,19.51 -60.81,27.94zm847.55 954.76l-811.74 -828.25c35.58,6.96 70.84,13 105.76,17.94l757.11 772.49c-16.99,13.15 -34.04,25.71 -51.13,37.82zm-913 -931.56l-946.17 -965.4c7.2,-22.19 15.39,-43.86 24.47,-65.01l987.15 1007.21c-21.39,8.71 -43.24,16.45 -65.45,23.2zm859.94 967.39l-870.94 -888.64c37.77,9.08 75.19,17.32 112.26,24.56l811.74 828.25c-17.64,12.49 -35.34,24.41 -53.06,35.83zm-930.61 -949.52l-894.64 -912.82c5.32,-23.99 11.7,-47.49 19.14,-70.45l946.17 965.4c-23.16,7.06 -46.74,13.04 -70.67,17.87zm875.56 983.33l-934.01 -952.99c39.75,10.92 79.12,21.17 118.12,30.54l870.94 888.64c-18.32,11.82 -36.67,23.09 -55.05,33.81zm-952.53 -971.89l-830.68 -847.55c1.31,-11.05 2.81,-22.12 4.61,-33.21 2.39,-14.68 5.21,-29.16 8.4,-43.5l894.64 912.82c-25.3,5.11 -50.98,8.93 -76.97,11.44zm895.34 1003.52l-1731.34 -1766.53c0.2,-27.97 1.98,-56.19 5.32,-84.54l830.68 847.55c-12.87,1.25 -25.81,2.21 -38.82,2.79 19.2,5.52 38.32,10.89 57.34,16.11l934.01 952.99c-19.05,11.1 -38.11,21.65 -57.19,31.63zm-59.44 29.33l-1666.54 -1700.41c-3.76,-31.38 -5.58,-63.25 -5.36,-95.45l1731.34 1766.53c-19.81,10.36 -39.63,20.14 -59.44,29.33zm-61.82 26.91l-936.53 -955.58c-5.72,-36.5 -15.06,-73.23 -28.75,-109.88 -1.59,-0.24 -3.16,-0.37 -4.75,-0.65 -33.06,-5.36 -65.25,-12.8 -96.5,-22.11l-515.86 -526.34c-10.21,-36.7 -17.72,-74.37 -22.33,-112.76l1666.54 1700.41c-20.63,9.58 -41.24,18.53 -61.82,26.91zm-64.33 24.34l-865.09 -882.69c0.22,-32.07 -1.99,-64.55 -7.11,-97.23l936.53 955.58c-21.48,8.74 -42.94,16.84 -64.33,24.34zm-1151.91 -1175.33l-305.94 -312.16c-25.29,-47.92 -45.54,-98.65 -60.21,-151.41l515.86 526.34c-52.8,-15.75 -102.87,-36.91 -149.71,-62.77zm1084.93 1196.96l-804.03 -820.37c3.64,-27.55 5.72,-55.59 5.92,-83.95l865.09 882.69c-22.4,7.85 -44.74,15.06 -66.98,21.63zm-1390.87 -1509.12l305.94 312.16c-131.35,-72.5 -237.2,-181.89 -305.94,-312.16zm1321.08 1527.89l-748.22 -763.43c5.83,-24.73 10.58,-50.01 13.98,-75.71l804.03 820.37c-23.38,6.9 -46.66,13.19 -69.79,18.77zm-1037.89 -1058.98l-182.61 -186.32c75.77,53.51 135.59,116.81 182.61,186.32zm964.93 1074.52l-694.89 -709.01c7.38,-22.73 14,-46.09 19.63,-69.96l748.22 763.43c-24.5,5.9 -48.82,11.02 -72.96,15.54zm-872.16 -889.88l-457.98 -467.3c69.32,26.57 129.83,59.08 182.6,96.34l182.61 186.32c39.18,57.92 69.5,120.15 92.77,184.64zm796 902.15l-642.64 -655.71c8.55,-21.17 16.59,-43.06 23.91,-65.57l694.89 709.01c-25.62,4.8 -51.02,8.9 -76.16,12.27zm-759.13 -774.56l-623.51 -636.18 3.29 0.67c20.89,6.21 41.92,12.58 63.42,19.2 21.4,6.63 42.03,13.79 61.95,21.42l457.98 467.3c15.07,41.77 27.2,84.48 36.87,127.59zm679.37 783.16l-590.21 -602.21c9.46,-19.88 18.65,-40.62 27.33,-62.1l642.64 655.71c-26.9,3.61 -53.51,6.47 -79.76,8.6zm-659.81 -673.22l-751.05 -766.32c36.22,6.12 72.22,12.89 107.98,20.2l623.51 636.18c8.18,36.48 14.59,73.24 19.56,109.94zm576.11 677.79l-536.65 -547.56c10.14,-18.71 20.29,-38.5 30.14,-59.22l590.21 602.21c-28.33,2.31 -56.26,3.79 -83.7,4.57zm-565.87 -577.37l-864.74 -882.31c34.69,4.55 69.17,9.78 103.45,15.57l751.05 766.32c4.55,33.61 7.9,67.17 10.24,100.42zm477.77 577.47l-1441.56 -1470.87c33.2,3.05 66.22,6.78 99.05,11.09l864.74 882.31c1.78,25.13 3.01,50.08 3.75,74.74 8.38,-14.15 16.92,-29.17 25.47,-44.93l536.65 547.56c-29.99,0.86 -59.36,0.81 -88.1,0.1zm-92.88 -4.78l-1443.55 -1472.9c31.79,1.63 63.41,3.93 94.87,6.81l1441.56 1470.87c-31.81,-0.79 -62.83,-2.42 -92.88,-4.78zm-98.46 -10.51l-1436.04 -1465.22c30.46,0.32 60.78,1.28 90.95,2.83l1443.55 1472.9c-34.11,-2.69 -66.97,-6.29 -98.46,-10.51zm630.65 733.46l-541.12 -552.11c205.05,156.5 393.15,323.25 541.12,552.11zm-735.56 -750.5l-1418.43 -1447.27c29.23,-0.91 58.33,-1.21 87.3,-0.91l1436.04 1465.22c-37,-4.95 -72.07,-10.77 -104.91,-17.04zm848.76 955.99l-2351.12 -2398.9c28.1,-2.05 56.08,-3.49 83.93,-4.36l1418.43 1447.27c-39.01,-7.46 -74.92,-15.55 -107.16,-23.56 102.72,75.38 204.07,147.51 301.6,221.95l541.12 552.11c40.98,63.37 78.87,131.5 113.2,205.49zm63.15 154.41l-2495.04 -2545.75c27.04,-3.1 53.96,-5.6 80.77,-7.56l2351.12 2398.9c22.65,48.81 43.74,100.18 63.15,154.41zm42.55 133.39l-2615.47 -2668.63c26.06,-4.07 52.02,-7.56 77.88,-10.51l2495.04 2545.75c15.26,42.64 29.45,87.05 42.55,133.39zm30.59 121.19l-2721.28 -2776.58c25.17,-4.96 50.24,-9.35 75.22,-13.24l2615.47 2668.63c11.01,38.97 21.2,79.4 30.59,121.19zm22.89 113.33l-2816.81 -2874.05c24.3,-5.79 48.51,-11.1 72.64,-15.86l2721.28 2776.58c8.26,36.68 15.95,74.35 22.89,113.33zm16.96 107.29l-2904.15 -2963.18c23.54,-6.56 46.99,-12.59 70.38,-18.16l2816.81 2874.05c6.2,34.8 11.84,70.57 16.96,107.29zm12.59 102.82l-2984.93 -3045.59c22.8,-7.27 45.53,-14.1 68.19,-20.41l2904.15 2963.18c4.66,33.45 8.86,67.72 12.59,102.82zm9.02 99.19l-3060.17 -3122.37c22.14,-7.95 44.21,-15.39 66.22,-22.41l2984.93 3045.59c3.43,32.29 6.4,65.43 9.02,99.19zm6.28 96.38l-3130.78 -3194.41c21.51,-8.57 42.95,-16.67 64.33,-24.34l3060.17 3122.37c2.44,31.48 4.55,63.58 6.28,96.38zm3.86 93.93l-3197.2 -3262.18c20.91,-9.15 41.77,-17.88 62.56,-26.16l3130.78 3194.41c1.61,30.71 2.9,62.02 3.86,93.93zm1.87 91.88l-3259.98 -3326.25c20.36,-9.68 40.66,-18.96 60.91,-27.81l3197.2 3262.18c0.91,30.09 1.55,60.69 1.87,91.88zm0.04 90.01l-3319.41 -3386.87c19.84,-10.2 39.64,-19.99 59.39,-29.39l3259.98 3326.25c0.3,29.48 0.28,59.54 0.04,90.01zm-1.4 88.55l-3375.96 -3444.56c19.36,-10.68 38.68,-20.96 57.95,-30.86l3319.41 3386.87c-0.23,29.07 -0.67,58.55 -1.4,88.55zm-2.71 87.23l-2531.12 -2582.57c4.78,-18.83 9.57,-37.85 14.42,-57.19 -71.06,-60.67 -140.98,-109.35 -213.02,-145.44l-700.12 -714.35c18.91,-11.13 37.77,-21.87 56.59,-32.24l3375.96 3444.56c-0.71,28.69 -1.55,57.67 -2.71,87.23zm-88.03 0.16l-2461.44 -2511.48c6.1,-23.31 12.2,-47.09 18.35,-71.25l2531.12 2582.57 -0.01 0.16 -88.02 0zm-2782.06 -2838.62l-615.05 -627.55c18.48,-11.55 36.91,-22.72 55.3,-33.54l700.12 714.35c-45.67,-22.88 -92.19,-40.69 -140.37,-53.26zm2693.88 2838.62l-2392.14 -2440.76c6.31,-23.1 12.59,-46.7 18.88,-70.72l2461.44 2511.48 -88.18 0zm-2800.64 -2857.56l-562.39 -573.82c18.08,-11.96 36.11,-23.54 54.1,-34.79l615.05 627.55c-34.62,-9.04 -70.11,-15.38 -106.76,-18.94zm2712.45 2857.56l-2323.65 -2370.88c6.63,-22.82 13.19,-46.08 19.7,-69.88l2392.14 2440.76 -88.19 0zm-2803.77 -2860.76l-523.97 -534.62c17.67,-12.33 35.31,-24.36 52.9,-36l562.39 573.82c-29.63,-2.88 -60.01,-3.96 -91.32,-3.2zm2715.58 2860.76l-626.94 -639.69c-73.68,-125.58 -169.58,-213.12 -276.81,-282.43l-1352.47 -1379.96c7.04,-22.4 13.94,-45.34 20.76,-68.8l2323.65 2370.88 -88.19 0zm-2797.91 -2854.78l-493.48 -503.5c17.32,-12.7 34.6,-25.08 51.84,-37.1l523.97 534.62c-26.74,0.64 -54.15,2.63 -82.33,5.98zm2709.72 2854.78l-462.64 -472.04c-21.47,-62.62 -47.05,-118.1 -76.11,-167.65l626.94 639.69 -88.19 0zm-1004.71 -1025.13l-1185.44 -1209.54c7.55,-21.89 14.9,-44.39 22.12,-67.41l1352.47 1379.96c-60.14,-38.89 -123.84,-72.05 -189.15,-103.01zm-1781.38 -1817.58l-412.53 -420.93c-7.28,-29.23 -14.32,-56.96 -21.08,-82.53 5.51,-4.1 11,-8.08 16.5,-12.11l493.48 503.5c-24.83,2.96 -50.27,6.98 -76.37,12.07zm2697.91 2842.71l-339.28 -346.17c-10.01,-44.94 -21.79,-86.79 -35.18,-125.87l462.64 472.04 -88.18 0zm-1075.02 -1096.87l-1050.89 -1072.24c8.21,-21.27 16.19,-43.09 23.94,-65.56l1185.44 1209.54c-52.13,-24.72 -105.28,-48.04 -158.49,-71.74zm-1695.07 -1729.51l-310.86 -317.18c-10.17,-41.62 -20.04,-82.12 -29.49,-120.08l412.53 420.93c-23.5,4.57 -47.54,10.01 -72.18,16.33zm2681.91 2826.38l-231.11 -235.81c-5.56,-38.72 -12.22,-75.49 -19.99,-110.36l339.28 346.17 -88.18 0zm-1091.77 -1113.95l-971.97 -991.73c8.98,-20.48 17.62,-41.66 26.01,-63.43l1050.89 1072.24c-26.82,-11.94 -53.65,-23.98 -80.36,-36.35 -8.09,6.53 -16.28,12.95 -24.57,19.27zm-1659.2 -1692.92l-212.12 -216.43c-10.11,-40.3 -20.03,-80.78 -29.68,-120.26l310.86 317.18c-22.52,5.78 -45.51,12.26 -69.06,19.51zm2662.78 2806.87l-131.41 -134.09c-3.01,-35.36 -6.86,-69.25 -11.51,-101.72l231.11 235.81 -88.19 0zm-1055.27 -1076.71l-948.92 -968.21c9.91,-19.59 19.46,-39.82 28.64,-60.76l971.97 991.73c-16.83,12.85 -34.07,25.25 -51.69,37.24zm-1674.12 -1708.15l-113.86 -116.17c-10.68,-39.68 -21.27,-80.87 -31.65,-122.27l212.12 216.43c-21.73,6.69 -43.94,14.05 -66.61,22.01zm2641.2 2784.86l-37.27 -38.03c-1.29,-33.22 -3.32,-65.16 -5.95,-96.06l131.41 134.09 -88.19 0zm-1021.22 -1041.97l-926.37 -945.21c10.98,-18.53 21.49,-37.79 31.59,-57.74l948.92 968.21c-17.66,12 -35.72,23.58 -54.14,34.74zm-1684.71 -1718.95l-12.49 -12.75c-12.25,-39.22 -24.51,-82.31 -36.64,-127.36l113.86 116.17c-21.14,7.43 -42.72,15.41 -64.73,23.94zm1628.18 1751.24l-904.82 -923.2c12.21,-17.34 23.82,-35.48 34.98,-54.3l926.37 945.21c-18.48,11.19 -37.32,21.95 -56.53,32.29zm-1640.67 -1763.99l12.49 12.75 -7.53 2.92c-1.65,-5.15 -3.31,-10.38 -4.96,-15.67zm2681.15 2735.64l37.27 38.03 -36.09 0c-0.29,-12.85 -0.69,-25.52 -1.18,-38.03zm-1099.41 -941.79l-884.8 -902.78c13.58,-16.01 26.56,-32.74 38.91,-50.28l904.82 923.2c-19.29,10.38 -38.94,20.32 -58.93,29.86zm-61.29 27.44l-866.58 -884.19c15.05,-14.56 29.4,-29.91 43.07,-46.03l884.8 902.78c-20.09,9.57 -40.52,18.71 -61.29,27.44zm-63.64 25.05l-850.5 -867.79c16.64,-13 32.45,-26.85 47.56,-41.45l866.58 884.19c-20.88,8.78 -42.1,17.12 -63.64,25.05zm-65.99 22.65l-836.88 -853.9c18.3,-11.37 35.74,-23.55 52.37,-36.54l850.5 867.79c-21.67,7.98 -43.68,15.52 -65.99,22.65zm-68.34 20.25l-825.92 -842.71c20.03,-9.68 39.16,-20.13 57.38,-31.44l836.88 853.9c-22.48,7.17 -45.26,13.93 -68.34,20.25zm-70.71 17.82l-817.53 -834.15c21.74,-7.98 42.49,-16.78 62.32,-26.38l825.92 842.71c-23.28,6.37 -46.86,12.31 -70.71,17.82zm-73.1 15.4l-811.73 -828.23c23.46,-6.29 45.83,-13.44 67.3,-21.32l817.53 834.15c-24.09,5.57 -48.46,10.71 -73.1,15.4zm-75.52 12.92l-808.56 -824.99c25.12,-4.63 49.29,-9.98 72.35,-16.16l811.73 828.23c-24.91,4.74 -50.08,9.06 -75.52,12.92zm-77.98 10.42l-807.58 -824.01c26.75,-3.03 52.36,-6.86 77,-11.4l808.56 824.99c-25.75,3.91 -51.73,7.41 -77.98,10.42zm-80.59 7.76l-808.64 -825.09c28.26,-1.51 55.5,-3.71 81.65,-6.68l807.58 824.01c-26.62,3.06 -53.5,5.61 -80.59,7.76zm-83.17 5.1l-811.34 -827.82c29.72,-0.07 58.27,-0.9 85.87,-2.37l808.64 825.09c-27.49,2.17 -55.23,3.85 -83.17,5.1zm-85.85 2.4l-815.5 -832.08c31.04,1.27 61.09,1.93 90.01,1.86l811.34 827.82c-28.4,1.27 -57.03,2.08 -85.85,2.4zm-88.62 -0.45l-820.56 -837.23c32.3,2.52 63.47,4.36 93.68,5.6l815.5 832.08c-29.35,0.32 -58.89,0.2 -88.62,-0.45zm-91.66 -3.54l-826.03 -842.82c33.44,3.67 65.76,6.68 97.13,9.13l820.56 837.23c-30.37,-0.65 -60.95,-1.88 -91.66,-3.54zm-94.68 -6.63l-822.26 -838.97 1.46 -8.14c30.63,4.11 60.42,7.74 89.45,10.92l826.03 842.82c-31.4,-1.7 -62.97,-3.9 -94.68,-6.63zm-98.05 -10.07l-738.55 -753.55c5.28,-26.58 10.1,-51.87 14.34,-75.35l822.26 838.97c-32.55,-2.81 -65.24,-6.18 -98.05,-10.07zm-101.57 -13.64l-652.23 -665.49c5.41,-25.62 10.51,-50.54 15.25,-74.42l738.55 753.55c-33.75,-4 -67.6,-8.52 -101.57,-13.64zm-105.51 -17.68l-562.65 -574.09c5.52,-24.99 10.85,-49.66 15.93,-73.72l652.23 665.49c-35.08,-5.29 -70.27,-11.21 -105.51,-17.68zm-109.73 -21.98l-469.42 -478.95c5.64,-24.5 11.15,-48.98 16.5,-73.16l562.65 574.09c-36.53,-6.7 -73.11,-14.03 -109.73,-21.98zm-114.5 -26.84l-371.92 -379.49c5.74,-24.05 11.43,-48.35 17,-72.62l469.42 478.95c-38.15,-8.29 -76.33,-17.22 -114.5,-26.84zm-119.98 -32.45l-269.46 -274.94c5.85,-23.6 11.71,-47.73 17.52,-72.1l371.92 379.49c-40.03,-10.09 -80.03,-20.91 -119.98,-32.45zm-126.4 -38.99l-161.16 -164.43c5.97,-23.08 12.03,-47.02 18.1,-71.52l269.46 274.94c-42.22,-12.19 -84.37,-25.21 -126.4,-38.99zm-134.07 -46.81l-45.9 -46.84c6.11,-22.36 12.41,-46.07 18.81,-70.78l161.16 164.43c-44.86,-14.71 -89.57,-30.32 -134.07,-46.81zm-45.9 -46.84l45.9 46.84c-17.79,-6.59 -35.57,-13.27 -53.29,-20.15 2.43,-8.65 4.89,-17.57 7.39,-26.69z"/>
   <polygon class="fil1" points="10514.36,12564.74 10514.36,10830.26 9843.48,10830.26 9843.48,10655.72 11387.06,10655.72 11387.06,10830.26 10716.17,10830.26 10716.17,12564.74 "/>
   <path id="_1" class="fil1" d="M12221.58 12578.38c-122.73,0 -229.09,-21.82 -319.08,-68.18 -90,-46.37 -160.91,-114.54 -210,-204.54 -51.81,-90 -76.36,-204.54 -76.36,-340.9l0 -831.78 193.63 0 0 809.97c0,152.72 38.18,267.26 114.54,343.62 73.64,79.09 180,117.27 316.36,117.27 100.9,0 188.17,-21.82 261.8,-62.73 73.64,-40.91 128.18,-98.18 169.09,-177.26 38.18,-79.09 57.27,-171.82 57.27,-280.9l0 -749.97 193.63 0 0 1431.76 -185.45 0 0 -392.71 30 70.9c-46.36,106.36 -114.54,188.18 -209.99,245.45 -95.45,60 -207.27,90 -335.44,90z"/>
   <path id="_2" class="fil1" d="M13462.44 12564.74l0 -1431.76 185.45 0 0 387.25 -30 -68.18c43.63,-103.63 114.54,-185.44 212.72,-245.44 95.45,-57.27 209.99,-87.27 343.62,-87.27 139.09,0 259.08,35.45 357.26,103.63 98.18,70.91 160.9,177.27 190.9,316.35l-76.36 -29.99c40.91,-117.27 117.27,-210 223.63,-283.63 106.36,-70.91 231.81,-106.36 381.8,-106.36 117.27,0 218.18,21.82 305.45,65.45 84.54,46.36 152.72,114.54 201.81,204.54 46.36,90 70.9,204.54 70.9,343.62l0 831.79 -193.63 0 0 -812.7c0,-149.99 -35.45,-264.53 -106.36,-343.62 -73.63,-76.36 -174.53,-114.54 -305.44,-114.54 -98.18,0 -182.72,19.09 -253.63,60 -73.63,40.9 -128.17,100.9 -166.35,177.26 -40.91,79.09 -60,171.81 -60,280.9l0 752.7 -193.63 0 0 -812.7c0,-149.99 -35.45,-264.53 -109.09,-343.62 -73.63,-76.36 -174.54,-114.54 -305.44,-114.54 -95.45,0 -179.99,19.09 -253.63,60 -73.63,40.9 -128.17,100.9 -166.35,177.26 -40.91,79.09 -60,171.81 -60,280.9l0 752.7 -193.63 0z"/>
   <path id="_3" class="fil1" d="M17253.21 12564.74l0 -316.35 -8.18 -51.82 0 -529.07c0,-122.72 -32.73,-215.45 -100.91,-280.9 -68.18,-65.45 -171.81,-98.18 -305.44,-98.18 -92.72,0 -179.99,16.37 -264.54,46.37 -84.54,30 -155.45,70.9 -212.72,122.72l-87.27 -144.54c73.64,-62.73 160.91,-109.09 261.81,-144.54 100.91,-32.73 210,-49.09 321.81,-49.09 185.45,0 329.99,46.36 430.89,136.36 100.91,92.72 150,231.81 150,419.98l0 889.06 -185.45 0zm-493.62 13.64c-106.36,0 -199.08,-19.09 -278.17,-54.55 -79.09,-35.45 -141.81,-84.54 -182.72,-147.26 -40.91,-62.73 -62.73,-133.64 -62.73,-215.45 0,-73.63 19.09,-141.81 54.55,-204.54 35.45,-60 92.72,-109.09 174.54,-147.27 79.08,-35.45 188.17,-54.54 324.53,-54.54l493.62 0 0 144.54 -488.17 0c-139.08,0 -234.53,24.55 -286.35,73.63 -54.54,49.09 -81.81,109.09 -81.81,182.72 0,81.82 32.72,147.27 95.45,196.36 62.72,49.09 152.72,73.63 267.26,73.63 109.09,0 204.54,-24.54 283.63,-76.36 79.08,-49.09 136.35,-119.99 171.81,-215.44l43.63 133.63c-35.45,95.45 -98.18,169.08 -188.17,226.35 -90,57.27 -204.54,84.55 -340.9,84.55z"/>
   <polygon id="_4" class="fil1" points="17850.46,12564.74 17850.46,10655.72 18379.53,10655.72 19143.14,11902.04 18864.97,11902.04 19606.76,10655.72 20135.83,10655.72 20141.28,12564.74 19554.94,12564.74 19549.49,11539.32 19642.21,11539.32 19134.96,12392.93 18851.33,12392.93 18322.26,11539.32 18436.8,11539.32 18436.8,12564.74 "/>
   <path id="_5" class="fil1" d="M20452.18 12564.74l0 -1909.02 1551.76 0 0 485.44 -919.06 0 0 938.14 954.51 0 0 485.44 -1587.21 0zm589.07 -736.34l0 -463.61 850.87 0 0 463.61 -850.87 0z"/>
   <path id="_6" class="fil1" d="M22287.57 12564.74l0 -1909.02 940.87 0c212.72,0 400.9,38.18 561.8,114.54 160.9,79.09 289.08,188.18 379.08,329.99 89.99,141.81 136.35,310.9 136.35,509.98 0,196.36 -46.36,365.44 -136.35,507.25 -90,144.54 -218.18,253.63 -379.08,329.99 -160.9,79.09 -349.08,117.27 -561.8,117.27l-940.87 0zm643.61 -501.8l269.99 0c90,0 171.81,-16.36 239.99,-51.82 68.18,-35.45 120,-87.26 158.18,-155.44 38.18,-68.18 57.27,-150 57.27,-245.45 0,-98.18 -19.09,-179.99 -57.27,-248.17 -38.18,-68.18 -90,-117.27 -158.18,-152.72 -68.18,-35.46 -149.99,-51.82 -239.99,-51.82l-269.99 0 0 905.42z"/>
  </g>
 </g>
</svg>
